<svg width="39" height="35" viewBox="0 0 39 35" fill="none" xmlns="http://www.w3.org/2000/svg">
<g filter="url(#filter0_d_2_489)">
<path d="M9.75 6.96875C9.75 6.4886 9.84457 6.01316 10.0283 5.56956C10.2121 5.12597 10.4814 4.72291 10.8209 4.38339C11.1604 4.04388 11.5635 3.77456 12.0071 3.59082C12.4507 3.40707 12.9261 3.3125 13.4062 3.3125C13.8864 3.3125 14.3618 3.40707 14.8054 3.59082C15.249 3.77456 15.6521 4.04388 15.9916 4.38339C16.3311 4.72291 16.6004 5.12597 16.7842 5.56956C16.9679 6.01316 17.0625 6.4886 17.0625 6.96875C17.0625 7.93845 16.6773 8.86843 15.9916 9.55411C15.3059 10.2398 14.3759 10.625 13.4062 10.625C12.4366 10.625 11.5066 10.2398 10.8209 9.55411C10.1352 8.86843 9.75 7.93845 9.75 6.96875ZM13.4062 0.875C11.7901 0.875 10.2401 1.51702 9.09732 2.65982C7.95452 3.80262 7.3125 5.35259 7.3125 6.96875C7.3125 8.58491 7.95452 10.1349 9.09732 11.2777C10.2401 12.4205 11.7901 13.0625 13.4062 13.0625C15.0224 13.0625 16.5724 12.4205 17.7152 11.2777C18.858 10.1349 19.5 8.58491 19.5 6.96875C19.5 5.35259 18.858 3.80262 17.7152 2.65982C16.5724 1.51702 15.0224 0.875 13.4062 0.875ZM25.5938 8.1875C25.5938 7.54103 25.8506 6.92105 26.3077 6.46393C26.7648 6.00681 27.3848 5.75 28.0312 5.75C28.6777 5.75 29.2977 6.00681 29.7548 6.46393C30.2119 6.92105 30.4688 7.54103 30.4688 8.1875C30.4688 8.83397 30.2119 9.45395 29.7548 9.91107C29.2977 10.3682 28.6777 10.625 28.0312 10.625C27.3848 10.625 26.7648 10.3682 26.3077 9.91107C25.8506 9.45395 25.5938 8.83397 25.5938 8.1875ZM24.1849 11.1856C25.433 10.8129 26.7287 10.624 28.0312 10.625C29.3338 10.624 30.6295 10.8129 31.8776 11.1856C32.4389 10.4655 32.7866 9.6022 32.8812 8.6941C32.9758 7.786 32.8135 6.86958 32.4128 6.0492C32.0121 5.22883 31.389 4.53748 30.6146 4.05388C29.8402 3.57029 28.9455 3.31389 28.0325 3.31389C27.1194 3.31389 26.2248 3.57029 25.4504 4.05388C24.6759 4.53748 24.0529 5.22883 23.6521 6.0492C23.2514 6.86958 23.0891 7.786 23.1837 8.6941C23.2783 9.6022 23.6261 10.4655 24.1873 11.1856H24.1849ZM7.3125 15.5H17.6889C17.0682 16.2519 16.5312 17.0693 16.0875 17.9375H7.3125C6.98927 17.9375 6.67927 18.0659 6.45071 18.2945C6.22215 18.523 6.09375 18.833 6.09375 19.1562V19.3927L6.1035 19.5097C6.1979 20.2643 6.48128 20.9828 6.92738 21.5986C7.722 22.6931 9.45263 24.0312 13.4062 24.0312C13.8377 24.0312 14.2448 24.0142 14.625 23.9849V24.0312C14.625 24.8454 14.6981 25.64 14.8371 26.4127C14.3611 26.4506 13.8837 26.4693 13.4062 26.4688C8.82862 26.4688 6.29363 24.8746 4.95544 23.0343C4.25773 22.0709 3.81881 20.9446 3.68062 19.7632C3.66849 19.6522 3.66036 19.5408 3.65625 19.4293V19.1562C3.65625 18.1866 4.04146 17.2566 4.72714 16.5709C5.41282 15.8852 6.3428 15.5 7.3125 15.5ZM39 24.0312C39 26.9403 37.8444 29.7303 35.7873 31.7873C33.7303 33.8444 30.9403 35 28.0312 35C25.1222 35 22.3322 33.8444 20.2752 31.7873C18.2181 29.7303 17.0625 26.9403 17.0625 24.0312C17.0625 21.1222 18.2181 18.3322 20.2752 16.2752C22.3322 14.2181 25.1222 13.0625 28.0312 13.0625C30.9403 13.0625 33.7303 14.2181 35.7873 16.2752C37.8444 18.3322 39 21.1222 39 24.0312ZM29.25 19.1562C29.25 18.833 29.1216 18.523 28.893 18.2945C28.6645 18.0659 28.3545 17.9375 28.0312 17.9375C27.708 17.9375 27.398 18.0659 27.1695 18.2945C26.9409 18.523 26.8125 18.833 26.8125 19.1562V22.8125H23.1562C22.833 22.8125 22.523 22.9409 22.2945 23.1695C22.0659 23.398 21.9375 23.708 21.9375 24.0312C21.9375 24.3545 22.0659 24.6645 22.2945 24.893C22.523 25.1216 22.833 25.25 23.1562 25.25H26.8125V28.9062C26.8125 29.2295 26.9409 29.5395 27.1695 29.768C27.398 29.9966 27.708 30.125 28.0312 30.125C28.3545 30.125 28.6645 29.9966 28.893 29.768C29.1216 29.5395 29.25 29.2295 29.25 28.9062V25.25H32.9062C33.2295 25.25 33.5395 25.1216 33.768 24.893C33.9966 24.6645 34.125 24.3545 34.125 24.0312C34.125 23.708 33.9966 23.398 33.768 23.1695C33.5395 22.9409 33.2295 22.8125 32.9062 22.8125H29.25V19.1562Z" fill="white"/>
</g>
<defs>
<filter id="filter0_d_2_489" x="-0.34375" y="0.875" width="43.3438" height="42.125" filterUnits="userSpaceOnUse" color-interpolation-filters="sRGB">
<feFlood flood-opacity="0" result="BackgroundImageFix"/>
<feColorMatrix in="SourceAlpha" type="matrix" values="0 0 0 0 0 0 0 0 0 0 0 0 0 0 0 0 0 0 127 0" result="hardAlpha"/>
<feOffset dy="4"/>
<feGaussianBlur stdDeviation="2"/>
<feComposite in2="hardAlpha" operator="out"/>
<feColorMatrix type="matrix" values="0 0 0 0 0 0 0 0 0 0 0 0 0 0 0 0 0 0 0.25 0"/>
<feBlend mode="normal" in2="BackgroundImageFix" result="effect1_dropShadow_2_489"/>
<feBlend mode="normal" in="SourceGraphic" in2="effect1_dropShadow_2_489" result="shape"/>
</filter>
</defs>
</svg>
