<svg width="1476" height="490" viewBox="0 0 1476 490" fill="none" xmlns="http://www.w3.org/2000/svg">
<g clip-path="url(#clip0_2_337)">
<rect width="1476" height="490" rx="20" fill="#292C5D"/>
<g filter="url(#filter0_ddii_2_337)">
<path d="M142.436 385.637C138.219 380.835 133.885 376.032 129.317 371.464L125.921 368.302L127.561 366.896C133.288 361.979 137.37 355.424 139.255 348.114C141.14 340.804 140.738 333.092 138.102 326.019C134.283 318.042 128.235 311.342 120.69 306.727C113.145 302.113 104.426 299.782 95.5845 300.016V323.442C99.7519 323.384 103.859 324.439 107.483 326.497C111.107 328.556 114.116 331.545 116.199 335.155C118.19 339.84 116.199 344.993 110.694 350.498C109.874 351.435 108.937 352.021 108.117 352.841C72.9787 324.613 34.4435 308.684 15.5859 327.541C13.6106 329.56 11.9874 331.896 10.7836 334.452V335.623L8.6753 341.831L-42.9783 495.269C-44.9321 501.051 -45.4802 507.216 -44.5771 513.252C-43.6741 519.288 -41.3459 525.022 -37.7855 529.979C-34.225 534.936 -29.5347 538.974 -24.103 541.758C-18.6714 544.541 -12.6547 545.99 -6.55138 545.986C-2.56625 545.947 1.38738 545.275 5.16145 543.994L165.861 490.701C167.836 489.966 169.576 488.711 170.898 487.07L173.358 484.962C190.107 468.095 179.331 435.651 156.843 404.143C170.196 396.35 185.571 392.72 201 393.719V370.293C180.354 369.157 159.872 374.523 142.436 385.637ZM-1.63199 521.74C-4.29073 522.62 -7.14171 522.744 -9.86668 522.097C-12.5917 521.451 -15.0834 520.06 -17.0637 518.08C-19.044 516.099 -20.435 513.608 -21.0813 510.883C-21.7276 508.158 -21.6039 505.307 -20.7239 502.648L-4.79446 454.625C6.57381 476.305 24.042 494.18 45.4536 506.045L-1.63199 521.74ZM80.3578 494.449C62.6565 489.761 46.5087 480.478 33.5502 467.54C20.5918 454.602 11.283 438.469 6.56699 420.775L18.2798 385.637L18.9826 386.691C20.271 389.268 21.9108 391.962 23.5506 394.656C25.1904 397.35 25.4246 398.052 26.5959 399.809C27.7672 401.566 30.4612 405.432 32.5695 408.36C34.6778 411.288 34.7949 411.639 36.0833 413.279C37.3717 414.919 41.1198 419.721 43.8138 422.884L47.2105 426.983C51.1929 431.551 55.4095 436.002 59.8604 440.57C64.3113 445.138 67.8251 448.066 71.5732 452.283L75.4384 455.562L84.5745 462.942L88.9082 466.221C92.1878 468.564 95.3503 470.906 98.6299 473.015L102.261 475.357C106.477 477.934 110.694 480.394 114.794 482.502H115.379L80.3578 494.449ZM156.608 468.329H155.906C147.824 472.78 114.208 461.653 76.3755 423.704C72.3931 419.721 68.645 415.856 65.2483 411.991L61.8516 407.891L55.6438 400.395L52.247 395.71C50.7244 393.484 49.0846 391.376 47.679 389.268L44.6337 384.348L41.237 378.843C40.2999 377.204 39.5972 375.681 38.7773 374.158C37.9574 372.636 37.0203 371.113 36.3176 369.473C35.6894 368.101 35.1418 366.693 34.6778 365.257C34.0921 363.734 33.3894 362.211 32.9209 360.806C32.4523 359.4 32.3352 358.58 31.9838 357.175C31.6324 355.769 31.3982 354.598 31.1639 353.427C31.1055 352.412 31.1055 351.395 31.1639 350.381C31.0511 349.448 31.0511 348.504 31.1639 347.57L32.4523 343.939C36.669 339.723 58.572 343.939 87.854 366.194C82.8904 368.434 77.584 369.82 72.1589 370.293V393.719C84.6005 393.003 96.6719 389.221 107.297 382.709L112.92 388.097C117.839 393.016 122.407 398.052 126.741 403.089C120.036 415.213 117.563 429.226 119.713 442.913L143.139 438.345C142.448 433.999 142.448 429.572 143.139 425.226C146.713 430.647 149.884 436.324 152.626 442.21C159.185 457.671 158.717 466.338 156.608 468.329Z" fill="url(#paint0_linear_2_337)"/>
</g>
<path d="M382.331 59.5746L482.092 50.3401L479.118 88.1304L382.331 59.5746Z" fill="#EA0000"/>
<circle cx="414.466" cy="222.467" r="10.4661" fill="#9F00EA"/>
<path d="M266.075 341.984C266.075 341.984 262.679 321.807 272.426 317.785C280.616 314.407 287.715 329.348 294.444 323.931C301.26 318.444 284.245 309.752 289.786 303.189C295.618 296.283 314.344 303.189 314.344 303.189" stroke="#005EEA" stroke-width="8.37287"/>
<path d="M205.566 59.3986C205.566 76.7393 233.361 90.7968 214.02 90.7968C194.679 90.7968 179 76.7393 179 59.3986C179 42.0578 194.679 28.0003 214.02 28.0003C233.361 28.0003 205.566 42.0578 205.566 59.3986Z" fill="#9F00EA"/>
<rect x="882" y="448.84" width="69.7739" height="34.8869" transform="rotate(-45.5869 882 448.84)" fill="#EAA900"/>
<path d="M487.321 355.277L550.998 463.161L505.409 479.239L487.321 355.277Z" fill="#EAD300"/>
<path d="M999.932 66.0006L1004.63 80.4644H1019.84L1007.54 89.4035L1012.24 103.867L999.932 94.9281L987.628 103.867L992.328 89.4035L980.024 80.4644H995.232L999.932 66.0006Z" fill="#EAD300"/>
<circle cx="325.421" cy="436.421" r="24.4209" fill="#EAA900"/>
<path d="M35.9973 145.732C35.9973 145.732 80.6127 123.51 90.7338 135.157C96.2941 141.556 100.493 149.306 95.5133 155.603C91.6746 160.457 86.1324 161.075 79.6386 159.935C65.8871 157.52 66.0957 138.424 71.6158 126.597C79.2374 110.267 119.695 119.906 119.695 119.906" stroke="#05EA00" stroke-width="8.37287"/>
<rect x="1048.06" y="366.999" width="20.9322" height="34.8869" transform="rotate(21.9912 1048.06 366.999)" fill="#EA0000"/>
<rect x="775.709" y="115.328" width="83.7287" height="27.9096" transform="rotate(-116.768 775.709 115.328)" fill="#EA0000"/>
<path d="M1259.67 69.0175L1263.15 39.0477L1287.37 54.4041L1290.13 29.2628L1312.23 44.4833L1319.11 17.3035" stroke="#005EEA" stroke-width="6.97739"/>
<path d="M1411.22 326.128C1422.72 327.286 1433.9 309.788 1432.61 322.617C1431.32 335.446 1420.95 344.908 1409.44 343.75C1397.94 342.593 1389.66 331.254 1390.95 318.425C1392.25 305.595 1399.71 324.97 1411.22 326.128Z" fill="#005EEA"/>
<path d="M1304.89 355.813L1312.72 379.919H1338.07L1317.56 394.817L1325.39 418.924L1304.89 404.025L1284.38 418.924L1292.21 394.817L1271.71 379.919H1297.05L1304.89 355.813Z" fill="#05EA00"/>
</g>
<defs>
<filter id="filter0_ddii_2_337" x="-110.598" y="267.201" width="377.196" height="377.182" filterUnits="userSpaceOnUse" color-interpolation-filters="sRGB">
<feFlood flood-opacity="0" result="BackgroundImageFix"/>
<feColorMatrix in="SourceAlpha" type="matrix" values="0 0 0 0 0 0 0 0 0 0 0 0 0 0 0 0 0 0 127 0" result="hardAlpha"/>
<feOffset dy="32.799"/>
<feGaussianBlur stdDeviation="32.799"/>
<feColorMatrix type="matrix" values="0 0 0 0 0.2 0 0 0 0 0.2 0 0 0 0 0.2 0 0 0 0.366 0"/>
<feBlend mode="normal" in2="BackgroundImageFix" result="effect1_dropShadow_2_337"/>
<feColorMatrix in="SourceAlpha" type="matrix" values="0 0 0 0 0 0 0 0 0 0 0 0 0 0 0 0 0 0 127 0" result="hardAlpha"/>
<feOffset dy="1.56171"/>
<feGaussianBlur stdDeviation="0.780856"/>
<feComposite in2="hardAlpha" operator="out"/>
<feColorMatrix type="matrix" values="0 0 0 0 0 0 0 0 0 0 0 0 0 0 0 0 0 0 0.25 0"/>
<feBlend mode="normal" in2="effect1_dropShadow_2_337" result="effect2_dropShadow_2_337"/>
<feBlend mode="normal" in="SourceGraphic" in2="effect2_dropShadow_2_337" result="shape"/>
<feColorMatrix in="SourceAlpha" type="matrix" values="0 0 0 0 0 0 0 0 0 0 0 0 0 0 0 0 0 0 127 0" result="hardAlpha"/>
<feOffset dy="12.8281"/>
<feGaussianBlur stdDeviation="6.41403"/>
<feComposite in2="hardAlpha" operator="arithmetic" k2="-1" k3="1"/>
<feColorMatrix type="matrix" values="0 0 0 0 1 0 0 0 0 1 0 0 0 0 1 0 0 0 1 0"/>
<feBlend mode="normal" in2="shape" result="effect3_innerShadow_2_337"/>
<feColorMatrix in="SourceAlpha" type="matrix" values="0 0 0 0 0 0 0 0 0 0 0 0 0 0 0 0 0 0 127 0" result="hardAlpha"/>
<feOffset dy="-12.8281"/>
<feGaussianBlur stdDeviation="6.41403"/>
<feComposite in2="hardAlpha" operator="arithmetic" k2="-1" k3="1"/>
<feColorMatrix type="matrix" values="0 0 0 0 0.71 0 0 0 0 0.71 0 0 0 0 0.71 0 0 0 1 0"/>
<feBlend mode="normal" in2="effect3_innerShadow_2_337" result="effect4_innerShadow_2_337"/>
</filter>
<linearGradient id="paint0_linear_2_337" x1="78" y1="300" x2="78" y2="545.986" gradientUnits="userSpaceOnUse">
<stop stop-color="white"/>
<stop offset="1" stop-color="#C4C4C4"/>
</linearGradient>
<clipPath id="clip0_2_337">
<rect width="1476" height="490" fill="white"/>
</clipPath>
</defs>
</svg>
