<svg width="339" height="244" viewBox="0 0 339 244" fill="none" xmlns="http://www.w3.org/2000/svg">
<g clip-path="url(#clip0_2_373)">
<rect width="339" height="244" rx="4.5935" fill="#292C5D"/>
<g filter="url(#filter0_ddii_2_373)">
<path d="M43.4311 210.75C42.0553 209.183 40.6412 207.616 39.1507 206.126L38.0424 205.094L38.5774 204.635C40.4464 203.031 41.7783 200.892 42.3933 198.507C43.0084 196.122 42.8771 193.605 42.017 191.297C40.7708 188.694 38.7975 186.508 36.3357 185.003C33.8738 183.497 31.0287 182.736 28.1439 182.813V190.456C29.5037 190.437 30.8439 190.782 32.0263 191.453C33.2087 192.125 34.1905 193.1 34.8703 194.278C35.52 195.807 34.8703 197.488 33.074 199.285C32.8065 199.59 32.5008 199.781 32.2333 200.049C20.7679 190.838 8.19418 185.641 2.04109 191.794C1.39656 192.453 0.866926 193.215 0.474157 194.049V194.431L-0.213767 196.457L-17.0679 246.522C-17.7054 248.409 -17.8842 250.42 -17.5896 252.39C-17.2949 254.359 -16.5352 256.23 -15.3735 257.848C-14.2117 259.465 -12.6813 260.783 -10.909 261.691C-9.13675 262.599 -7.17356 263.072 -5.1821 263.07C-3.88178 263.058 -2.59175 262.838 -1.3603 262.421L51.0747 245.032C51.7191 244.792 52.2868 244.382 52.7181 243.847L53.5206 243.159C58.9858 237.655 55.4697 227.069 48.1319 216.788C52.4889 214.246 57.5058 213.061 62.5401 213.387V205.743C55.8036 205.373 49.1204 207.124 43.4311 210.75V210.75ZM-3.57695 255.159C-4.44447 255.446 -5.37472 255.487 -6.26385 255.276C-7.15299 255.065 -7.96601 254.611 -8.61217 253.965C-9.25832 253.319 -9.71218 252.506 -9.92308 251.617C-10.134 250.728 -10.0936 249.797 -9.80647 248.93L-4.60883 233.26C-0.899464 240.334 4.80026 246.167 11.7867 250.038L-3.57695 255.159ZM23.1756 246.254C17.3998 244.725 12.1309 241.696 7.9027 237.474C3.67446 233.253 0.637101 227.989 -0.901689 222.215L2.9201 210.75L3.14941 211.094C3.56981 211.935 4.10486 212.814 4.63991 213.693C5.17496 214.572 5.2514 214.801 5.63357 215.374C6.01575 215.948 6.89477 217.209 7.58269 218.164C8.27061 219.12 8.30883 219.234 8.72923 219.769C9.14963 220.305 10.3726 221.871 11.2516 222.903L12.3599 224.241C13.6593 225.731 15.0352 227.184 16.4875 228.674C17.9397 230.165 19.0863 231.12 20.3093 232.496L21.5705 233.566L24.5515 235.974L25.9655 237.044C27.0356 237.808 28.0675 238.573 29.1376 239.261L30.3224 240.025C31.6982 240.866 33.0741 241.668 34.4117 242.356H34.6028L23.1756 246.254ZM48.0555 237.732H47.8262C45.1891 239.184 34.2206 235.553 21.8762 223.171C20.5768 221.871 19.3538 220.61 18.2455 219.349L17.1372 218.011L15.1116 215.565L14.0033 214.037C13.5065 213.311 12.9714 212.623 12.5128 211.935L11.5191 210.33L10.4108 208.533C10.1051 207.998 9.87576 207.502 9.60824 207.005C9.34071 206.508 9.03497 206.011 8.80566 205.476C8.60068 205.028 8.42203 204.569 8.27061 204.1C8.07952 203.603 7.85021 203.106 7.69734 202.648C7.54447 202.189 7.50625 201.922 7.3916 201.463C7.27695 201.004 7.20051 200.622 7.12408 200.24C7.10501 199.909 7.10501 199.577 7.12408 199.246C7.08725 198.942 7.08725 198.634 7.12408 198.329L7.54447 197.144C8.92032 195.769 16.0671 197.144 25.6216 204.406C24.0019 205.137 22.2705 205.589 20.5004 205.743V213.387C24.56 213.154 28.4987 211.919 31.9657 209.795L33.8002 211.553C35.4053 213.158 36.8958 214.801 38.3099 216.445C36.1222 220.401 35.3154 224.973 36.0168 229.439L43.6604 227.948C43.4352 226.53 43.4352 225.086 43.6604 223.668C44.8268 225.436 45.8615 227.289 46.7561 229.209C48.8963 234.254 48.7434 237.082 48.0555 237.732V237.732Z" fill="url(#paint0_linear_2_373)"/>
</g>
<path d="M97.0452 185.131L111.67 209.909L101.2 213.602L97.0452 185.131Z" fill="#EAD300"/>
<path d="M126.521 19.9125L149.434 17.7915L148.751 26.471L126.521 19.9125Z" fill="#EA0000"/>
<circle cx="105.404" cy="71.4039" r="2.4038" fill="#9F00EA"/>
<path d="M30.1313 100.615C30.1313 100.615 29.3512 95.9813 31.59 95.0577C33.4708 94.2817 35.1014 97.7133 36.6469 96.4692C38.2123 95.209 34.3045 93.2126 35.5772 91.7053C36.9166 90.119 41.2175 91.7053 41.2175 91.7053" stroke="#005EEA" stroke-width="1.92304"/>
<path d="M65.1018 30.2115C65.1018 34.1942 71.4854 37.4229 67.0432 37.4229C62.6011 37.4229 59 34.1942 59 30.2115C59 26.2288 62.6011 23.0001 67.0432 23.0001C71.4854 23.0001 65.1018 26.2288 65.1018 30.2115Z" fill="#9F00EA"/>
<rect x="173" y="207.447" width="16.0253" height="8.01265" transform="rotate(-45.5869 173 207.447)" fill="#EAA900"/>
<path d="M305.808 16.0001L306.887 19.3221L310.38 19.3221L307.554 21.3752L308.633 24.6971L305.808 22.644L302.982 24.6971L304.061 21.3752L301.235 19.3221L304.728 19.3221L305.808 16.0001Z" fill="#EAD300"/>
<circle cx="25.6091" cy="153.609" r="5.60886" fill="#EAA900"/>
<path d="M8.26765 33.4709C8.26765 33.4709 18.5147 28.3672 20.8392 31.0422C22.1163 32.5118 23.0807 34.2918 21.937 35.738C21.0553 36.8528 19.7824 36.9949 18.291 36.733C15.1326 36.1783 15.1805 31.7924 16.4483 29.076C18.1988 25.3256 27.4909 27.5393 27.4909 27.5393" stroke="#05EA00" stroke-width="1.92304"/>
<rect x="253" y="208" width="4.80759" height="8.01265" transform="rotate(21.9912 253 208)" fill="#EA0000"/>
<rect x="221.661" y="34.0571" width="19.2304" height="6.41012" transform="rotate(-116.768 221.661 34.0571)" fill="#EA0000"/>
<path d="M247.681 70.3252L248.479 63.4419L254.043 66.9689L254.677 61.1946L259.752 64.6903L261.332 58.4478" stroke="#005EEA" stroke-width="1.60253"/>
<path d="M311.191 127.001C313.833 127.267 316.4 123.248 316.104 126.194C315.807 129.141 313.425 131.314 310.783 131.048C308.142 130.782 306.24 128.178 306.537 125.232C306.834 122.285 308.549 126.735 311.191 127.001Z" fill="#005EEA"/>
<path d="M287.013 171L288.812 176.537H294.633L289.923 179.958L291.722 185.495L287.013 182.073L282.303 185.495L284.102 179.958L279.392 176.537H285.214L287.013 171Z" fill="#05EA00"/>
</g>
<defs>
<filter id="filter0_ddii_2_373" x="-39.1316" y="172.105" width="123.076" height="123.071" filterUnits="userSpaceOnUse" color-interpolation-filters="sRGB">
<feFlood flood-opacity="0" result="BackgroundImageFix"/>
<feColorMatrix in="SourceAlpha" type="matrix" values="0 0 0 0 0 0 0 0 0 0 0 0 0 0 0 0 0 0 127 0" result="hardAlpha"/>
<feOffset dy="10.702"/>
<feGaussianBlur stdDeviation="10.702"/>
<feColorMatrix type="matrix" values="0 0 0 0 0.2 0 0 0 0 0.2 0 0 0 0 0.2 0 0 0 0.366 0"/>
<feBlend mode="normal" in2="BackgroundImageFix" result="effect1_dropShadow_2_373"/>
<feColorMatrix in="SourceAlpha" type="matrix" values="0 0 0 0 0 0 0 0 0 0 0 0 0 0 0 0 0 0 127 0" result="hardAlpha"/>
<feOffset dy="0.509572"/>
<feGaussianBlur stdDeviation="0.254786"/>
<feComposite in2="hardAlpha" operator="out"/>
<feColorMatrix type="matrix" values="0 0 0 0 0 0 0 0 0 0 0 0 0 0 0 0 0 0 0.25 0"/>
<feBlend mode="normal" in2="effect1_dropShadow_2_373" result="effect2_dropShadow_2_373"/>
<feBlend mode="normal" in="SourceGraphic" in2="effect2_dropShadow_2_373" result="shape"/>
<feColorMatrix in="SourceAlpha" type="matrix" values="0 0 0 0 0 0 0 0 0 0 0 0 0 0 0 0 0 0 127 0" result="hardAlpha"/>
<feOffset dy="4.18568"/>
<feGaussianBlur stdDeviation="2.09284"/>
<feComposite in2="hardAlpha" operator="arithmetic" k2="-1" k3="1"/>
<feColorMatrix type="matrix" values="0 0 0 0 1 0 0 0 0 1 0 0 0 0 1 0 0 0 1 0"/>
<feBlend mode="normal" in2="shape" result="effect3_innerShadow_2_373"/>
<feColorMatrix in="SourceAlpha" type="matrix" values="0 0 0 0 0 0 0 0 0 0 0 0 0 0 0 0 0 0 127 0" result="hardAlpha"/>
<feOffset dy="-4.18568"/>
<feGaussianBlur stdDeviation="2.09284"/>
<feComposite in2="hardAlpha" operator="arithmetic" k2="-1" k3="1"/>
<feColorMatrix type="matrix" values="0 0 0 0 0.71 0 0 0 0 0.71 0 0 0 0 0.71 0 0 0 1 0"/>
<feBlend mode="normal" in2="effect3_innerShadow_2_373" result="effect4_innerShadow_2_373"/>
</filter>
<linearGradient id="paint0_linear_2_373" x1="22.4063" y1="182.807" x2="22.4063" y2="263.07" gradientUnits="userSpaceOnUse">
<stop stop-color="white"/>
<stop offset="1" stop-color="#C4C4C4"/>
</linearGradient>
<clipPath id="clip0_2_373">
<rect width="339" height="244" fill="white"/>
</clipPath>
</defs>
</svg>
