<svg width="203" height="203" viewBox="0 0 203 203" fill="none" xmlns="http://www.w3.org/2000/svg">
<g clip-path="url(#clip0_1296_619)">
<g filter="url(#filter0_dd_1296_619)">
<path d="M127.41 118.927L136.503 111.949L145.384 118.927C146.935 120.196 148.626 120.23 150.459 119.029C152.291 117.833 152.855 116.249 152.151 114.275L148.556 102.856L158.706 94.8208C160.256 93.5521 160.716 91.9647 160.084 90.0588C159.447 88.1585 158.142 87.2083 156.168 87.2083H144.115L140.52 76.001C139.815 74.0274 138.476 73.0406 136.503 73.0406C134.529 73.0406 133.19 74.0274 132.485 76.001L128.89 87.2083H116.837C114.863 87.2083 113.524 88.1951 112.819 90.1688C112.114 92.1424 112.537 93.693 114.088 94.8208L124.238 102.856L120.643 114.275C119.938 116.249 120.466 117.833 122.225 119.029C123.99 120.23 125.718 120.196 127.41 118.927ZM96.9599 201.819C94.1404 202.806 91.5663 202.453 89.2374 200.761C86.9142 199.07 85.7526 196.814 85.7526 193.995V140.284C80.3957 134.364 76.237 127.597 73.2766 119.984C70.3161 112.372 68.8359 104.266 68.8359 95.6667C68.8359 76.7764 75.3911 60.776 88.5016 47.6656C101.612 34.5552 117.612 28 136.503 28C155.393 28 171.393 34.5552 184.504 47.6656C197.614 60.776 204.169 76.7764 204.169 95.6667C204.169 104.266 202.689 112.372 199.729 119.984C196.768 127.597 192.61 134.364 187.253 140.284V193.995C187.253 196.814 186.088 199.07 183.759 200.761C181.436 202.453 178.865 202.806 176.045 201.819L136.503 188.708L96.9599 201.819ZM136.503 146.417C150.6 146.417 162.582 141.483 172.451 131.615C182.319 121.747 187.253 109.764 187.253 95.6667C187.253 81.5694 182.319 69.5868 172.451 59.7187C162.582 49.8507 150.6 44.9167 136.503 44.9167C122.405 44.9167 110.423 49.8507 100.555 59.7187C90.6866 69.5868 85.7526 81.5694 85.7526 95.6667C85.7526 109.764 90.6866 121.747 100.555 131.615C110.423 141.483 122.405 146.417 136.503 146.417ZM102.669 180.461L136.503 171.792L170.336 180.461V154.241C165.402 157.06 160.082 159.279 154.375 160.897C148.663 162.521 142.705 163.333 136.503 163.333C130.3 163.333 124.342 162.521 118.63 160.897C112.924 159.279 107.603 157.06 102.669 154.241V180.461Z" fill="white"/>
</g>
</g>
<defs>
<filter id="filter0_dd_1296_619" x="64.8359" y="28" width="143.334" height="182.364" filterUnits="userSpaceOnUse" color-interpolation-filters="sRGB">
<feFlood flood-opacity="0" result="BackgroundImageFix"/>
<feColorMatrix in="SourceAlpha" type="matrix" values="0 0 0 0 0 0 0 0 0 0 0 0 0 0 0 0 0 0 127 0" result="hardAlpha"/>
<feOffset dy="3.77674"/>
<feGaussianBlur stdDeviation="1.88837"/>
<feComposite in2="hardAlpha" operator="out"/>
<feColorMatrix type="matrix" values="0 0 0 0 0 0 0 0 0 0 0 0 0 0 0 0 0 0 0.25 0"/>
<feBlend mode="normal" in2="BackgroundImageFix" result="effect1_dropShadow_1296_619"/>
<feColorMatrix in="SourceAlpha" type="matrix" values="0 0 0 0 0 0 0 0 0 0 0 0 0 0 0 0 0 0 127 0" result="hardAlpha"/>
<feOffset dy="4"/>
<feGaussianBlur stdDeviation="2"/>
<feComposite in2="hardAlpha" operator="out"/>
<feColorMatrix type="matrix" values="0 0 0 0 0 0 0 0 0 0 0 0 0 0 0 0 0 0 0.25 0"/>
<feBlend mode="normal" in2="effect1_dropShadow_1296_619" result="effect2_dropShadow_1296_619"/>
<feBlend mode="normal" in="SourceGraphic" in2="effect2_dropShadow_1296_619" result="shape"/>
</filter>
<clipPath id="clip0_1296_619">
<rect width="203" height="203" fill="white"/>
</clipPath>
</defs>
</svg>
