<svg width="210" height="210" viewBox="0 0 210 210" fill="none" xmlns="http://www.w3.org/2000/svg">
<g filter="url(#filter0_dd_1296_614)">
<path d="M11.6719 128.334H198.339V81.667H11.6719V128.334ZM58.3385 99.167H140.005V110.834H58.3385V99.167ZM35.0052 99.167H46.6719V110.834H35.0052V99.167Z" fill="white"/>
<path d="M186.672 23.333H23.3385C20.2443 23.333 17.2769 24.5622 15.089 26.7501C12.901 28.938 11.6719 31.9055 11.6719 34.9997V69.9997H198.339V34.9997C198.339 31.9055 197.109 28.938 194.921 26.7501C192.734 24.5622 189.766 23.333 186.672 23.333ZM46.6719 52.4997H35.0052V40.833H46.6719V52.4997ZM140.005 52.4997H58.3385V40.833H140.005V52.4997Z" fill="white"/>
<path d="M12 175C12 178.094 13.2292 181.062 15.4171 183.25C17.605 185.438 20.5725 186.667 23.6667 186.667H187C190.094 186.667 193.062 185.438 195.25 183.25C197.438 181.062 198.667 178.094 198.667 175V140H12V175ZM58.6667 157.5H140.333V169.167H58.6667V157.5ZM35.3333 157.5H47V169.167H35.3333V157.5Z" fill="white"/>
</g>
<defs>
<filter id="filter0_dd_1296_614" x="7.67188" y="23.333" width="194.994" height="171.334" filterUnits="userSpaceOnUse" color-interpolation-filters="sRGB">
<feFlood flood-opacity="0" result="BackgroundImageFix"/>
<feColorMatrix in="SourceAlpha" type="matrix" values="0 0 0 0 0 0 0 0 0 0 0 0 0 0 0 0 0 0 127 0" result="hardAlpha"/>
<feOffset dy="4"/>
<feGaussianBlur stdDeviation="2"/>
<feComposite in2="hardAlpha" operator="out"/>
<feColorMatrix type="matrix" values="0 0 0 0 0 0 0 0 0 0 0 0 0 0 0 0 0 0 0.25 0"/>
<feBlend mode="normal" in2="BackgroundImageFix" result="effect1_dropShadow_1296_614"/>
<feColorMatrix in="SourceAlpha" type="matrix" values="0 0 0 0 0 0 0 0 0 0 0 0 0 0 0 0 0 0 127 0" result="hardAlpha"/>
<feOffset dy="4"/>
<feGaussianBlur stdDeviation="2"/>
<feComposite in2="hardAlpha" operator="out"/>
<feColorMatrix type="matrix" values="0 0 0 0 0 0 0 0 0 0 0 0 0 0 0 0 0 0 0.25 0"/>
<feBlend mode="normal" in2="effect1_dropShadow_1296_614" result="effect2_dropShadow_1296_614"/>
<feBlend mode="normal" in="SourceGraphic" in2="effect2_dropShadow_1296_614" result="shape"/>
</filter>
</defs>
</svg>
