<svg width="38" height="16" viewBox="0 0 38 16" fill="none" xmlns="http://www.w3.org/2000/svg">
<g filter="url(#filter0_d_35_209)">
<path d="M7.125 7.5625C6.18017 7.5625 5.27403 7.18717 4.60593 6.51907C3.93783 5.85097 3.5625 4.94483 3.5625 4C3.5625 3.05517 3.93783 2.14903 4.60593 1.48093C5.27403 0.812833 6.18017 0.4375 7.125 0.4375C8.06983 0.4375 8.97597 0.812833 9.64407 1.48093C10.3122 2.14903 10.6875 3.05517 10.6875 4C10.6875 4.94483 10.3122 5.85097 9.64407 6.51907C8.97597 7.18717 8.06983 7.5625 7.125 7.5625ZM19 7.5625C18.0552 7.5625 17.149 7.18717 16.4809 6.51907C15.8128 5.85097 15.4375 4.94483 15.4375 4C15.4375 3.05517 15.8128 2.14903 16.4809 1.48093C17.149 0.812833 18.0552 0.4375 19 0.4375C19.9448 0.4375 20.851 0.812833 21.5191 1.48093C22.1872 2.14903 22.5625 3.05517 22.5625 4C22.5625 4.94483 22.1872 5.85097 21.5191 6.51907C20.851 7.18717 19.9448 7.5625 19 7.5625ZM30.875 7.5625C29.9302 7.5625 29.024 7.18717 28.3559 6.51907C27.6878 5.85097 27.3125 4.94483 27.3125 4C27.3125 3.05517 27.6878 2.14903 28.3559 1.48093C29.024 0.812833 29.9302 0.4375 30.875 0.4375C31.8198 0.4375 32.726 0.812833 33.3941 1.48093C34.0622 2.14903 34.4375 3.05517 34.4375 4C34.4375 4.94483 34.0622 5.85097 33.3941 6.51907C32.726 7.18717 31.8198 7.5625 30.875 7.5625Z" fill="white"/>
</g>
<defs>
<filter id="filter0_d_35_209" x="-0.4375" y="0.4375" width="38.875" height="15.125" filterUnits="userSpaceOnUse" color-interpolation-filters="sRGB">
<feFlood flood-opacity="0" result="BackgroundImageFix"/>
<feColorMatrix in="SourceAlpha" type="matrix" values="0 0 0 0 0 0 0 0 0 0 0 0 0 0 0 0 0 0 127 0" result="hardAlpha"/>
<feOffset dy="4"/>
<feGaussianBlur stdDeviation="2"/>
<feComposite in2="hardAlpha" operator="out"/>
<feColorMatrix type="matrix" values="0 0 0 0 0 0 0 0 0 0 0 0 0 0 0 0 0 0 0.25 0"/>
<feBlend mode="normal" in2="BackgroundImageFix" result="effect1_dropShadow_35_209"/>
<feBlend mode="normal" in="SourceGraphic" in2="effect1_dropShadow_35_209" result="shape"/>
</filter>
</defs>
</svg>
