<svg width="233" height="233" viewBox="0 0 233 233" fill="none" xmlns="http://www.w3.org/2000/svg">
<path d="M158.54 80.0635H147.902C145.589 80.0635 143.389 81.1748 142.028 83.08L106.374 132.525L90.2246 110.116C88.8638 108.233 86.6864 107.099 84.3503 107.099H73.7129C72.2386 107.099 71.3767 108.778 72.2386 109.98L100.499 149.173C101.167 150.104 102.047 150.864 103.066 151.387C104.086 151.911 105.216 152.184 106.362 152.184C107.508 152.184 108.638 151.911 109.658 151.387C110.678 150.864 111.558 150.104 112.225 149.173L159.991 82.944C160.876 81.7419 160.014 80.0635 158.54 80.0635Z" fill="url(#paint0_linear_625_101)"/>
<path d="M116.128 14.5156C60.0147 14.5156 14.5166 60.0137 14.5166 116.127C14.5166 172.239 60.0147 217.737 116.128 217.737C172.24 217.737 217.738 172.239 217.738 116.127C217.738 60.0137 172.24 14.5156 116.128 14.5156ZM116.128 200.5C69.5407 200.5 31.7542 162.713 31.7542 116.127C31.7542 69.5397 69.5407 31.7532 116.128 31.7532C162.714 31.7532 200.501 69.5397 200.501 116.127C200.501 162.713 162.714 200.5 116.128 200.5Z" fill="url(#paint1_linear_625_101)"/>
<defs>
<linearGradient id="paint0_linear_625_101" x1="116.122" y1="80.0635" x2="116.122" y2="152.184" gradientUnits="userSpaceOnUse">
<stop stop-color="#2DE976"/>
<stop offset="1" stop-color="#2DA5FC"/>
</linearGradient>
<linearGradient id="paint1_linear_625_101" x1="116.128" y1="14.5156" x2="116.128" y2="217.737" gradientUnits="userSpaceOnUse">
<stop stop-color="#2DE976"/>
<stop offset="1" stop-color="#2DA5FC"/>
</linearGradient>
</defs>
</svg>
