<svg xmlns="http://www.w3.org/2000/svg" width="204" height="204" fill="none" viewBox="0 0 204 204">
  <path fill="url(#a)" d="M101.611 0C45.498 0 0 45.498 0 101.611c0 56.113 45.498 101.611 101.611 101.611 56.113 0 101.611-45.498 101.611-101.611C203.222 45.498 157.724 0 101.611 0Zm0 185.984c-46.587 0-84.373-37.786-84.373-84.373s37.786-84.373 84.373-84.373 84.373 37.786 84.373 84.373-37.786 84.373-84.373 84.373Z"/>
  <path fill="url(#b)" d="m113.223 58.49-2.53 52.47h-18.37l-2.53-52.47h23.43Zm-11.66 82.39c-3.813 0-6.893-1.027-9.24-3.08-2.273-2.127-3.41-4.803-3.41-8.03 0-3.227 1.137-5.903 3.41-8.03 2.347-2.127 5.427-3.19 9.24-3.19 3.74 0 6.747 1.063 9.02 3.19 2.347 2.127 3.52 4.803 3.52 8.03 0 3.153-1.173 5.793-3.52 7.92-2.273 2.127-5.28 3.19-9.02 3.19Z"/>
  <defs>
    <linearGradient id="a" x1="246.5" x2="-37" y1="232" y2="-34" gradientUnits="userSpaceOnUse">
      <stop stop-color="#E92D2D"/>
      <stop offset="1" stop-color="#FC902D"/>
    </linearGradient>
    <linearGradient id="b" x1="101.5" x2="101.5" y1="30" y2="173" gradientUnits="userSpaceOnUse">
      <stop stop-color="#FF9D0B"/>
      <stop offset="1" stop-color="red"/>
    </linearGradient>
  </defs>
</svg>
